<?xml version="1.0" encoding="UTF-8"?>
<svg version="1.1" xmlns="http://www.w3.org/2000/svg" width="256" height="256">
<path d="M0 0 C1.17691406 -0.01611328 2.35382813 -0.03222656 3.56640625 -0.04882812 C11.85092723 -0.05338507 19.11300725 1.20085518 27.125 3.3125 C28.775 11.2325 30.425 19.1525 32.125 27.3125 C28.495 26.3225 24.865 25.3325 21.125 24.3125 C-1.37735344 18.44060742 -23.07894222 22.75999569 -42.875 34.3125 C-45.71625299 36.14838655 -48.3042779 38.11946693 -50.875 40.3125 C-51.43960938 40.7353125 -52.00421875 41.158125 -52.5859375 41.59375 C-65.87545996 51.93672675 -74.85817717 69.48212688 -77.57763672 85.90136719 C-80.28821926 107.87978521 -76.98234002 129.34613873 -63.3125 147.25 C-62.17466333 148.61089276 -61.02943518 149.96565895 -59.875 151.3125 C-59.42898437 151.90160156 -58.98296875 152.49070313 -58.5234375 153.09765625 C-46.74514362 168.21657734 -27.1367224 176.06420631 -8.74609375 178.7734375 C10.62559903 180.91264284 31.40734101 175.71632745 46.9375 163.8125 C48.33895305 162.65259002 49.73523023 161.48638321 51.125 160.3125 C51.71667969 159.86519531 52.30835938 159.41789063 52.91796875 158.95703125 C66.44706036 148.40000553 75.94608494 129.1749412 78.125 112.3125 C79.22376871 98.73056467 78.56271562 86.2157374 74.125 73.3125 C73.77533932 71.98335505 73.43380243 70.65172737 73.125 69.3125 C81.37462617 69.79193719 89.11626518 71.32197384 97.125 73.3125 C99.57365572 82.33101561 100.64358084 90.72652817 100.5625 100.0625 C100.55565186 101.28461182 100.54880371 102.50672363 100.54174805 103.76586914 C100.37050313 113.46269295 99.15868003 122.12194147 96.125 131.3125 C95.76277344 132.44171875 95.40054688 133.5709375 95.02734375 134.734375 C86.16236969 159.85680996 67.76867851 179.55649893 44.08740234 191.3828125 C38.90434284 193.83828533 33.61873054 195.69108647 28.125 197.3125 C27.135 197.63089844 26.145 197.94929687 25.125 198.27734375 C-0.42280511 205.20718589 -28.13659376 200.24182212 -50.9296875 187.62109375 C-74.48756681 173.23944222 -91.63146834 150.90915818 -98.3125 124.0625 C-104.14916484 97.36532771 -99.66501783 69.70302224 -85.5 46.5 C-69.85793567 23.2802245 -47.52645091 6.88862094 -19.8671875 1.21875 C-13.24369069 0.06574189 -6.708896 -0.01825053 0 0 Z " fill="#2D2D83" transform="translate(99.875,55.6875)"/>
<path d="M0 0 C2.20338627 8.43099216 4.08657798 16.90231058 5.78979492 25.44799805 C6.19212797 27.46065123 6.60273069 29.47151074 7.01367188 31.48242188 C7.39942383 33.40731445 7.39942383 33.40731445 7.79296875 35.37109375 C8.0252417 36.52536865 8.25751465 37.67964355 8.49682617 38.86889648 C8.94433392 41.65360627 9.10169523 44.18840677 9 47 C10.27875 47.0928125 11.5575 47.185625 12.875 47.28125 C20.20696141 48.01548027 27.38543274 49.54200182 34.59814453 51.01123047 C37.02129965 51.50433441 39.44603486 51.98901098 41.87109375 52.47265625 C43.41416106 52.7833651 44.95713349 53.09454557 46.5 53.40625 C47.22388916 53.55106812 47.94777832 53.69588623 48.69360352 53.84509277 C53.76846018 54.88423009 53.76846018 54.88423009 56 56 C54.42334144 59.74466204 52.08951774 62.24347286 49.29760742 65.16748047 C48.82076508 65.66870926 48.34392273 66.16993805 47.85263062 66.68635559 C42.87293231 71.90286611 37.82563331 77.05476765 32.77368164 82.20117188 C30.38185408 84.64204296 28.01251683 87.101905 25.66040039 89.58105469 C22.81241337 92.58245815 19.92889701 95.54501818 17.01680946 98.48422623 C15.91739662 99.60621878 14.83089478 100.74102335 13.75835228 101.8887291 C5.37932653 110.82419296 5.37932653 110.82419296 -0.46748352 111.25621033 C-3.79060653 110.76567521 -6.79939609 110.0055769 -10 109 C-11.8308445 108.61311488 -13.66503921 108.2412872 -15.50390625 107.89453125 C-18.06297596 107.35217294 -20.61935649 106.799955 -23.17382812 106.23632812 C-24.00462891 106.06166016 -24.83542969 105.88699219 -25.69140625 105.70703125 C-26.42560791 105.5469458 -27.15980957 105.38686035 -27.91625977 105.22192383 C-30.42849385 104.95436428 -31.61813401 105.08850311 -34 106 C-36.03460917 107.76102212 -37.9006962 109.5217617 -39.77832031 111.43774414 C-40.34461151 112.00359726 -40.91090271 112.56945038 -41.49435425 113.15245056 C-43.36281064 115.02299557 -45.22041899 116.90393926 -47.078125 118.78515625 C-48.37212717 120.08475409 -49.66679364 121.3836908 -50.96209717 122.68199158 C-54.36848751 126.09983285 -57.7657726 129.52658763 -61.16125488 132.95526123 C-64.62810229 136.45280394 -68.10346437 139.94186298 -71.578125 143.43164062 C-78.39378855 150.27947274 -85.19986543 157.13674927 -92 164 C-93.11228972 163.0542569 -94.22348623 162.107228 -95.33422852 161.15966797 C-96.26260277 160.36881302 -96.26260277 160.36881302 -97.20973206 159.5619812 C-99.5563298 157.51461082 -101.75278049 155.34333058 -103.9375 153.125 C-104.70964844 152.34382812 -105.48179688 151.56265625 -106.27734375 150.7578125 C-106.84582031 150.17773438 -107.41429688 149.59765625 -108 149 C-102.9676808 142.78108281 -97.27043507 137.34657529 -91.48910522 131.8418541 C-87.86080216 128.37406844 -84.26993977 124.86741776 -80.67256165 121.36761284 C-77.52089113 118.30564666 -74.35689358 115.25878334 -71.16357422 112.24023438 C-68.05666836 109.30188888 -64.98828773 106.3278423 -61.94226074 103.32648087 C-60.78158523 102.19587947 -59.6077178 101.07864969 -58.42053223 99.97591782 C-51.56834676 93.87716729 -51.56834676 93.87716729 -48.72138977 85.51679993 C-49.21170398 82.19098205 -49.97808986 79.19784806 -51 76 C-51.38785854 74.16936147 -51.75985365 72.33517556 -52.10546875 70.49609375 C-52.64782706 67.93702404 -53.200045 65.38064351 -53.76367188 62.82617188 C-53.93833984 61.99537109 -54.11300781 61.16457031 -54.29296875 60.30859375 C-54.4530542 59.57439209 -54.61313965 58.84019043 -54.77807617 58.08374023 C-55.04194183 55.60618979 -54.87457413 54.35034859 -54 52 C-51.91908264 49.54486084 -51.91908264 49.54486084 -49.14477539 46.77246094 C-48.64065628 46.26469116 -48.13653717 45.75692139 -47.61714172 45.23376465 C-45.95129187 43.55981802 -44.27484098 41.8969588 -42.59765625 40.234375 C-41.43751282 39.07475016 -40.27788729 37.91460698 -39.11875916 36.75396729 C-36.68973853 34.32503633 -34.25563448 31.90135492 -31.81762695 29.48144531 C-28.68720893 26.37375209 -25.56802472 23.25506699 -22.45232487 20.13262558 C-20.06015455 17.73712059 -17.66303733 15.34661804 -15.26428032 12.95771027 C-14.11185594 11.809144 -12.96078774 10.65921538 -11.81108284 9.50792694 C-10.20713545 7.90361031 -8.59687204 6.30592489 -6.98461914 4.70996094 C-6.06830215 3.79825134 -5.15198517 2.88654175 -4.207901 1.94720459 C-2 0 -2 0 0 0 Z M-25.74707031 52.66992188 C-30.48686903 57.52197635 -30.48686903 57.52197635 -32.81640625 63.73828125 C-32.23661676 67.07706901 -31.29391066 69.8737449 -30 73 C-29.58565114 74.92946787 -29.20693234 76.86715885 -28.875 78.8125 C-28.58638204 80.2089669 -28.29598825 81.60507667 -28 83 C-23.50630908 84.59296474 -19.04424352 85.72838685 -14.375 86.6875 C-13.08335937 86.95949219 -11.79171875 87.23148438 -10.4609375 87.51171875 C-7.22650673 87.96804363 -5.94493519 88.1099002 -3 87 C-0.90648512 85.31892656 -0.90648512 85.31892656 1.109375 83.18359375 C1.86347656 82.41982422 2.61757812 81.65605469 3.39453125 80.86914062 C4.17183594 80.06669922 4.94914062 79.26425781 5.75 78.4375 C6.54277344 77.63119141 7.33554688 76.82488281 8.15234375 75.99414062 C10.10847046 74.00266222 12.05725719 72.00452279 14 70 C10.60976247 67.73984165 7.54452928 67.11653257 3.625 66.375 C2.965 66.2409375 2.305 66.106875 1.625 65.96875 C-1.96390908 65.26812632 -5.34393457 64.84472309 -9 65 C-9.03738281 64.42894531 -9.07476562 63.85789062 -9.11328125 63.26953125 C-9.70319685 55.99390548 -11.23696042 49.07433492 -13 42 C-16.95000406 42 -23.04045234 50.04488452 -25.74707031 52.66992188 Z " fill="#E5292A" transform="translate(200,0)"/>
<path d="M0 0 C0.97130859 -0.00773437 1.94261719 -0.01546875 2.94335938 -0.0234375 C4.35391602 -0.01957031 4.35391602 -0.01957031 5.79296875 -0.015625 C6.63754639 -0.01336914 7.48212402 -0.01111328 8.35229492 -0.00878906 C11.12175791 0.28253085 13.28285063 1.11215213 15.8125 2.25 C13.85988761 4.63652626 11.85994171 6.94518757 9.8125 9.25 C9.39919434 9.73210937 8.98588867 10.21421875 8.56005859 10.7109375 C2.24996396 17.99233841 -2.24710516 22.08959723 -12.08203125 23.640625 C-21.14113129 25.41825972 -27.97484653 31.93061591 -33.1875 39.25 C-38.85525627 49.50124611 -40.04499038 61.2854437 -37.38671875 72.68359375 C-33.09182877 84.0333202 -25.71388765 91.20889555 -14.7890625 96.19140625 C-6.22123783 99.67771329 5.00547563 99.6148348 13.8125 96.6875 C23.13168455 92.65720016 30.89587234 85.92070286 34.99609375 76.54296875 C36.42987096 72.70380707 37.67979903 69.01348501 38.3828125 64.96875 C40.47932112 59.51553632 44.24892114 56.28009053 48.4375 52.3125 C49.23929687 51.53326172 50.04109375 50.75402344 50.8671875 49.95117188 C52.83808956 48.03892762 54.81970206 46.13937102 56.8125 44.25 C58.8125 45.25 58.8125 45.25 59.42260742 47.01586914 C62.39387766 64.04160113 59.42075304 80.88032379 49.8125 95.25 C39.94788951 107.92509386 26.95878105 117.50717381 10.8125 120.25 C-1.25091247 121.31180757 -12.96636283 121.08421316 -24.1875 116.25 C-25.46560547 115.75886719 -25.46560547 115.75886719 -26.76953125 115.2578125 C-41.89885712 108.72956795 -51.94813757 94.63585279 -58.1640625 79.94140625 C-62.79293125 66.42251388 -61.79845273 49.27409889 -56.1875 36.25 C-55.86007813 35.39792969 -55.53265625 34.54585937 -55.1953125 33.66796875 C-49.04030655 19.40363013 -36.20674768 9.84301997 -22.53125 3.546875 C-14.845634 0.56600524 -8.17550603 -0.06588722 0 0 Z " fill="#2D2D83" transform="translate(100.1875,95.75)"/>
</svg>
