<?xml version="1.0" encoding="UTF-8"?>
<svg version="1.1" xmlns="http://www.w3.org/2000/svg" width="256" height="256">
<path d="M0 0 C18.47395333 11.78634752 39.11127285 15.86425517 60.85961914 16.22583008 C65.41160035 16.36411379 68.52893095 17.32505965 72.4140625 19.69140625 C76.4563018 24.06139469 77.80536007 27.48917183 77.68359375 33.5 C77.1124893 38.14332751 75.3642432 41.90666505 71.89453125 45.08203125 C62.19272885 51.08488938 46.04837022 47.43166886 35.4765625 45.94140625 C33.51976562 45.67505371 33.51976562 45.67505371 31.5234375 45.40332031 C23.32539246 44.24063646 15.39009471 42.75195622 7.4453125 40.42578125 C4.28944208 39.6612147 1.64804487 39.4401328 -1.5859375 39.69140625 C-3.68357915 41.21035431 -3.68357915 41.21035431 -4.5859375 43.69140625 C-4.91501917 46.80067672 -4.91501917 46.80067672 -3.5859375 49.69140625 C18.06698767 60.81662799 46.67008363 61.12547786 70.4140625 61.69140625 C57.26662706 77.38941599 41.24034492 89.85145865 20.4140625 92.69140625 C-2.628943 94.0928522 -22.26579716 85.6903362 -42.7109375 76.00390625 C-52.05115651 71.58947201 -61.21656409 68.36884018 -71.31445312 66.20288086 C-74.75304746 65.4286058 -78.16648685 64.54626891 -81.5859375 63.69140625 C-81.5859375 41.58140625 -81.5859375 19.47140625 -81.5859375 -3.30859375 C-49.28146673 -15.87144349 -29.22771257 -18.86862379 0 0 Z " fill="#2D2D83" transform="translate(141.5859375,148.30859375)"/>
<path d="M0 0 C0.84056946 0.00030212 1.68113892 0.00060425 2.54718018 0.00091553 C3.89426056 0.03188324 3.89426056 0.03188324 5.26855469 0.06347656 C6.19512878 0.06913635 7.12170288 0.07479614 8.07635498 0.08062744 C11.03157531 0.10299235 13.98557674 0.15318895 16.94042969 0.20410156 C18.94562049 0.22416642 20.95083033 0.24241721 22.95605469 0.25878906 C27.86798163 0.30285756 32.77899911 0.37188601 37.69042969 0.45410156 C37.8063506 9.62489159 37.89515814 18.79542892 37.94949055 27.96679211 C37.97556942 32.22560211 38.0109352 36.48391039 38.06762695 40.74243164 C38.12200932 44.85326876 38.15186309 48.96362375 38.1648159 53.07479286 C38.17404476 54.64211936 38.19206718 56.20941988 38.21907997 57.77654076 C38.25545627 59.97456965 38.26037193 62.17061435 38.25805664 64.36889648 C38.27471123 66.24420296 38.27471123 66.24420296 38.29170227 68.15739441 C37.52095517 72.38331052 36.0451831 73.8505775 32.69042969 76.45410156 C29.75947745 76.94177609 27.42383813 77.13492184 24.50292969 77.08300781 C23.33274292 77.08662575 23.33274292 77.08662575 22.13891602 77.09031677 C20.49490255 77.08934035 18.85085537 77.07599528 17.20703125 77.05102539 C14.69775145 77.01670171 12.19199391 77.03037694 9.68261719 77.04980469 C8.08103977 77.04290583 6.47947141 77.03323306 4.87792969 77.02050781 C4.13196533 77.02546768 3.38600098 77.03042755 2.61743164 77.03553772 C-2.36978481 76.92338811 -4.84980463 76.03231955 -8.30957031 72.45410156 C-8.9377594 69.41845703 -8.9377594 69.41845703 -8.94067383 65.82128906 C-8.94782913 65.16388733 -8.95498444 64.5064856 -8.96235657 63.8291626 C-8.97922964 61.66176294 -8.95985352 59.49643614 -8.93847656 57.32910156 C-8.93930541 55.81982248 -8.9417654 54.31054349 -8.94578552 52.80126953 C-8.94864252 49.64034812 -8.93395334 46.48013569 -8.90649414 43.31933594 C-8.87241031 39.27038017 -8.8784298 35.22269199 -8.89715672 31.17367554 C-8.90773234 28.05775412 -8.89878403 24.94212697 -8.8837719 21.82623291 C-8.87859367 20.33352533 -8.87906756 18.84078697 -8.88531685 17.3480835 C-8.89077636 15.26035643 -8.87037556 13.17443522 -8.84301758 11.08691406 C-8.836819 9.89984863 -8.83062042 8.7127832 -8.82423401 7.48974609 C-7.94664246 2.31344166 -5.21769237 -0.06286376 0 0 Z " fill="#2D2D83" transform="translate(8.3095703125,149.5458984375)"/>
<path d="M0 0 C13.53 0 27.06 0 41 0 C36.48243713 18.2159793 31.94679933 36.42634984 27.22088623 54.58953857 C26.78216573 56.27906191 26.34584264 57.9692096 25.91192627 59.65997314 C25.30350638 62.02773715 24.686212 64.39300731 24.06640625 66.7578125 C23.88653671 67.46450073 23.70666718 68.17118896 23.52134705 68.89929199 C22.22868288 73.77131712 22.22868288 73.77131712 20 76 C15.57438267 60.87042085 11.50071609 45.66353905 7.56591797 30.39941406 C6.6081782 26.6847555 5.6461675 22.97122108 4.68359375 19.2578125 C4.07267345 16.89589623 3.4619871 14.53391943 2.8515625 12.171875 C2.56415192 11.06173035 2.27674133 9.95158569 1.98062134 8.80780029 C1.71969696 7.79453674 1.45877258 6.78127319 1.18994141 5.73730469 C0.95933014 4.8435614 0.72871887 3.94981812 0.49111938 3.0289917 C0 1 0 1 0 0 Z " fill="#E5292A" transform="translate(145,60)"/>
<path d="M0 0 C12.21 0 24.42 0 37 0 C32.50290652 6.74564022 32.50290652 6.74564022 29.57421875 9.8046875 C28.94193359 10.47113281 28.30964844 11.13757813 27.65820312 11.82421875 C27.00787109 12.50097656 26.35753906 13.17773438 25.6875 13.875 C21.23088692 18.54297616 16.86036941 23.25293844 12.63208008 28.12939453 C10.30284107 30.79904737 7.90431588 33.39768163 5.5 36 C-0.82376618 42.86848985 -6.93682123 49.90164436 -13 57 C-13.66 56.67 -14.32 56.34 -15 56 C-13.02764543 48.3453763 -11.05179891 40.69166024 -9.07348633 33.03857422 C-8.40021997 30.43337918 -7.72807977 27.82789741 -7.05688477 25.22216797 C-6.0934206 21.48350038 -5.12707929 17.74558681 -4.16015625 14.0078125 C-3.85908463 12.83695099 -3.558013 11.66608948 -3.24781799 10.45974731 C-2.8274955 8.838293 -2.8274955 8.838293 -2.39868164 7.18408203 C-2.15219376 6.22921906 -1.90570587 5.27435608 -1.65174866 4.29055786 C-1 2 -1 2 0 0 Z " fill="#E5292A" transform="translate(200,60)"/>
<path d="M0 0 C12.21 0 24.42 0 37 0 C42.572672 18.86135138 47.303063 37.90633925 52 57 C48.42309728 55.33211578 46.41539355 53.49640933 43.8125 50.5 C43.02488281 49.6028125 42.23726562 48.705625 41.42578125 47.78125 C40.62527344 46.8634375 39.82476562 45.945625 39 45 C37.50313414 43.33051794 36.00319704 41.66378377 34.5 40 C16.5 20 16.5 20 14.2734375 17.51953125 C12.70383945 15.78002825 11.12511297 14.04873394 9.5390625 12.32421875 C8.74242188 11.45410156 7.94578125 10.58398438 7.125 9.6875 C6.40570313 8.90761719 5.68640625 8.12773438 4.9453125 7.32421875 C3 5 3 5 0 0 Z " fill="#E5292A" transform="translate(94,60)"/>
<path d="M0 0 C5.61 0 11.22 0 17 0 C18.27193017 3.16622996 19.54257301 6.33296665 20.8125 9.5 C21.16892578 10.386875 21.52535156 11.27375 21.89257812 12.1875 C22.93511216 14.78905283 23.96964552 17.39360158 25 20 C25.46092041 21.15628906 25.46092041 21.15628906 25.93115234 22.3359375 C27.11072389 25.36496073 28 27.7193578 28 31 C15.13 31 2.26 31 -11 31 C-10.22623995 27.13119974 -9.34681158 23.97678538 -7.96875 20.33203125 C-7.57042969 19.27435547 -7.17210937 18.21667969 -6.76171875 17.12695312 C-6.34535156 16.03318359 -5.92898437 14.93941406 -5.5 13.8125 C-5.08363281 12.70712891 -4.66726562 11.60175781 -4.23828125 10.46289062 C-1.16171288 2.32342575 -1.16171288 2.32342575 0 0 Z " fill="#E5292A" transform="translate(157,15)"/>
<path d="M0 0 C2.67009837 -0.19115477 5.32628503 -0.32850496 8 -0.4375 C8.74378906 -0.49615234 9.48757812 -0.55480469 10.25390625 -0.61523438 C14.73151312 -0.75150937 17.37492171 -0.15422229 20.8125 2.78515625 C22.22799934 4.17028836 23.62138551 5.57815211 25 7 C26.42592798 8.3925078 27.85191618 9.78495462 29.27905273 11.17622375 C31.3451186 13.2018918 33.38840941 15.24968359 35.43017578 17.29980469 C37.02130843 18.89638134 38.61782715 20.48743611 40.21484375 22.078125 C41.226884 23.09082465 42.23861476 24.1038337 43.25 25.1171875 C44.16265625 26.03097168 45.0753125 26.94475586 46.015625 27.88623047 C48 30 48 30 48 31 C35.79 31 23.58 31 11 31 C8.2775 23.884375 8.2775 23.884375 5.5 16.625 C4.92572266 15.1292041 4.35144531 13.6334082 3.75976562 12.09228516 C3.31310547 10.91972168 2.86644531 9.7471582 2.40625 8.5390625 C1.94541016 7.33459473 1.48457031 6.13012695 1.00976562 4.88916016 C0 2 0 2 0 0 Z " fill="#FFFFFF" transform="translate(189,15)"/>
<path d="M0 0 C0.80179688 0.00451172 1.60359375 0.00902344 2.4296875 0.01367188 C4.41149006 0.02546832 6.39325433 0.04340395 8.375 0.0625 C6.336564 7.25617485 3.89288632 14.21994366 1.1875 21.1875 C-0.070625 24.44625 -1.32875 27.705 -2.625 31.0625 C-14.835 31.0625 -27.045 31.0625 -39.625 31.0625 C-35.82978574 26.63475003 -32.17169736 22.48140677 -28.078125 18.3828125 C-27.580849 17.88457977 -27.083573 17.38634705 -26.57122803 16.87301636 C-25.53390054 15.83501563 -24.49533848 14.79824727 -23.45556641 13.76269531 C-21.86111821 12.17366539 -20.27215858 10.57928433 -18.68359375 8.984375 C-17.66959181 7.97103288 -16.65528024 6.95800047 -15.640625 5.9453125 C-14.72571289 5.03152832 -13.81080078 4.11774414 -12.86816406 3.17626953 C-8.84721034 -0.61273976 -5.26363136 -0.05554156 0 0 Z " fill="#E5292A" transform="translate(133.625,14.9375)"/>
<path d="M0 0 C1.19367188 -0.02578125 2.38734375 -0.0515625 3.6171875 -0.078125 C8.39561195 0.36885457 11.7300909 1.8550909 15.125 5.25 C15.61454894 9.94477434 15.71215816 12.21987518 13.359375 16.34765625 C12.53953125 17.32605469 11.7196875 18.30445313 10.875 19.3125 C10.43478516 19.84834717 9.99457031 20.38419434 9.54101562 20.9362793 C8.58964988 22.09413918 7.63102779 23.24606698 6.66601562 24.39257812 C5.02317442 26.37273274 3.43793198 28.39016169 1.859375 30.421875 C0.78142122 31.80221707 -0.29670061 33.18242791 -1.375 34.5625 C-1.89094727 35.22709229 -2.40689453 35.89168457 -2.93847656 36.57641602 C-4.204709 38.17184361 -5.53447978 39.71646183 -6.875 41.25 C-7.535 41.25 -8.195 41.25 -8.875 41.25 C-8.82859375 40.65574219 -8.7821875 40.06148437 -8.734375 39.44921875 C-8.33574862 30.29504858 -10.48688614 22.65494523 -16.5 15.625 C-18.27926405 13.72142056 -19.54602461 12.4144877 -21.875 11.25 C-21.67578125 9.44921875 -21.67578125 9.44921875 -20.875 7.25 C-18.73046875 5.58203125 -18.73046875 5.58203125 -16.0625 4.0625 C-15.18980469 3.55332031 -14.31710938 3.04414063 -13.41796875 2.51953125 C-8.8929247 0.26048468 -5.05479413 0.06522315 0 0 Z " fill="#E5292A" transform="translate(240.875,144.75)"/>
</svg>
